<?xml version="1.0" standalone="no"?>
<!DOCTYPE svg PUBLIC "-//W3C//DTD SVG 20010904//EN"
 "http://www.w3.org/TR/2001/REC-SVG-20010904/DTD/svg10.dtd">
<svg version="1.0" xmlns="http://www.w3.org/2000/svg"
 width="400.000000pt" height="100.000000pt" viewBox="0 0 400.000000 100.000000"
 preserveAspectRatio="xMidYMid meet">

<g transform="translate(0.000000,100.000000) scale(0.100000,-0.100000)"
fill="#000000" stroke="none">
<path d="M29 853 c-11 -13 -14 -76 -14 -310 0 -344 -6 -326 105 -321 65 3 65
3 68 34 3 28 7 32 42 38 21 3 67 19 102 36 96 46 131 42 233 -25 28 -18 62
-36 78 -39 l27 -6 0 288 c0 267 -1 290 -18 305 -16 15 -53 17 -314 17 -263 0
-297 -2 -309 -17z m427 -92 c106 -48 133 -184 53 -267 -39 -41 -108 -64 -188
-64 l-56 0 0 -57 0 -58 -67 -3 -68 -3 0 236 0 235 143 0 c117 0 149 -4 183
-19z"/>
<path d="M270 677 c-3 -3 -3 -35 -2 -71 l4 -66 49 0 c40 0 55 5 74 25 51 50
21 101 -65 111 -30 3 -57 4 -60 1z"/>
<path d="M1517 755 c-87 -31 -127 -99 -127 -220 0 -93 20 -146 69 -188 61 -51
160 -59 228 -17 48 29 94 130 61 130 -7 0 -30 3 -50 6 -30 5 -38 3 -38 -8 0
-31 -40 -68 -74 -68 -66 0 -93 57 -83 177 6 77 32 113 82 113 36 0 59 -21 69
-63 6 -27 8 -28 54 -21 26 3 49 8 51 10 2 2 -1 23 -8 46 -29 95 -131 140 -234
103z"/>
<path d="M690 535 l0 -225 184 0 184 0 17 50 17 50 72 0 72 0 13 -50 13 -50
54 0 c30 0 54 3 54 8 0 4 -31 104 -68 222 l-68 215 -60 3 -60 3 -70 -221 c-58
-186 -69 -214 -72 -180 l-3 40 -90 0 -89 0 0 180 0 180 -50 0 -50 0 0 -225z
m520 -42 c0 -2 -20 -3 -45 -3 -53 0 -53 2 -23 90 l21 65 24 -75 c12 -41 23
-76 23 -77z"/>
<path d="M1875 608 c-26 -84 -58 -186 -71 -225 l-22 -73 43 0 c43 0 43 0 60
50 l17 50 72 0 72 0 13 -50 13 -50 54 0 c30 0 54 3 54 8 0 4 -31 104 -68 222
l-68 215 -60 3 -60 3 -49 -153z m145 -115 c0 -2 -20 -3 -45 -3 -53 0 -53 2
-23 90 l21 65 24 -75 c12 -41 23 -76 23 -77z"/>
<path d="M2230 535 l0 -225 50 0 50 0 0 85 0 85 63 0 c91 1 140 25 162 84 22
58 15 110 -22 148 -36 38 -78 48 -200 48 l-103 0 0 -225z m220 125 c46 -46 9
-100 -70 -100 l-50 0 0 60 0 60 50 0 c37 0 55 -5 70 -20z"/>
<path d="M2630 535 l0 -225 155 0 155 0 0 45 0 45 -105 0 -105 0 0 45 0 45 85
0 85 0 0 45 0 45 -85 0 -85 0 0 45 0 45 105 0 105 0 0 45 0 45 -155 0 -155 0
0 -225z"/>
<path d="M3010 535 l0 -225 88 0 c110 0 153 12 202 56 90 82 94 237 9 329 -47
51 -94 65 -219 65 l-80 0 0 -225z m193 124 c47 -21 71 -91 55 -163 -12 -59
-54 -96 -109 -96 l-39 0 0 135 0 135 35 0 c19 0 45 -5 58 -11z"/>
<path d="M3450 535 l0 -225 50 0 50 0 0 225 0 225 -50 0 -50 0 0 -225z"/>
<path d="M3685 608 c-26 -84 -58 -186 -71 -225 l-22 -73 43 0 c43 0 43 0 60
50 l17 50 72 0 72 0 13 -50 13 -50 54 0 c30 0 54 3 54 8 0 4 -31 104 -68 222
l-68 215 -60 3 -60 3 -49 -153z m145 -115 c0 -2 -20 -3 -45 -3 -53 0 -53 2
-23 90 l21 65 24 -75 c12 -41 23 -76 23 -77z"/>
<path d="M420 305 l0 -35 78 0 c72 1 76 2 57 16 -28 22 -96 54 -117 54 -14 0
-18 -8 -18 -35z"/>
<path d="M330 305 c-25 -13 -62 -27 -82 -30 -31 -6 -38 -11 -38 -30 0 -12 -6
-28 -14 -34 -8 -7 -12 -21 -9 -31 7 -27 59 -27 81 -1 32 36 58 35 98 -3 l37
-36 102 0 c102 0 103 0 109 25 12 49 96 52 111 3 7 -19 45 -26 45 -8 0 6 -7
24 -15 39 -12 25 -23 30 -77 40 -35 6 -120 11 -189 12 -69 0 -137 3 -152 6
-45 9 -31 25 18 21 43 -3 45 -2 45 24 0 34 -11 34 -70 3z"/>
<path d="M644 173 c-8 -9 -14 -25 -12 -37 4 -28 62 -36 72 -10 16 42 -29 77
-60 47z"/>
<path d="M284 166 c-12 -31 0 -51 30 -51 36 0 56 26 37 49 -17 20 -60 21 -67
2z"/>
</g>
</svg>
